<svg width="1222" height="636" viewBox="0 0 1222 636" fill="none" xmlns="http://www.w3.org/2000/svg">
<g clip-path="url(#clip0_126_48)">
<path fill-rule="evenodd" clip-rule="evenodd" d="M81.8233 190.8C81.8233 195.63 83.5784 203.681 89.7214 203.681C98.4972 203.681 96.742 197.241 103.763 197.241C103.763 202.876 102.007 206.096 99.3747 209.316C98.4972 211.732 92.3542 222.197 90.599 223.808C87.9663 226.223 69.5373 227.028 81.8233 249.57C78.313 255.205 68.6597 268.891 67.7821 274.527C70.4148 275.332 71.2924 276.137 73.0476 277.747C71.2924 280.967 68.6597 281.772 66.9045 286.603C65.1494 291.433 66.027 292.238 66.027 298.678C65.1494 297.873 64.2718 297.873 62.5167 297.873C50.2307 293.848 40.5773 293.848 29.1689 300.289C26.5362 301.094 24.781 301.899 22.1483 303.509C19.5156 305.119 18.638 306.729 16.0053 308.339C15.1277 309.949 15.1277 309.949 13.3726 311.559C8.98472 317.195 5.47442 320.415 3.71928 328.466C1.08656 338.932 2.8417 354.228 6.352 363.084C7.22957 367.109 8.10714 368.719 9.86229 371.939C12.495 377.575 16.0053 382.405 20.3932 387.235C22.1483 388.846 24.781 391.261 27.4138 392.871C28.2913 394.481 29.1689 395.286 30.0465 396.091L42.3325 404.142C65.1494 417.828 97.6196 422.658 130.967 422.658C137.988 422.658 135.355 421.853 137.11 434.734C137.988 442.785 138.866 460.496 139.743 468.547C139.743 470.962 139.743 474.987 140.621 477.403C140.621 479.818 140.621 482.233 140.621 486.258C140.621 486.258 131.845 489.478 127.457 490.284C123.069 491.089 116.926 491.089 111.661 491.894L91.4766 493.504C87.0887 493.504 83.5784 493.504 79.1906 494.309C65.1494 495.919 45.8428 492.699 34.4343 501.554C31.8016 503.97 28.2913 509.605 28.2913 513.63C28.2913 517.656 29.1689 520.876 29.1689 524.096C15.1277 527.316 1.96413 542.613 0.208984 557.909V564.349C0.208984 566.765 1.08656 569.985 2.8417 572.4C2.8417 574.01 3.71928 575.62 4.59685 576.425L7.22957 580.451C19.5156 591.722 40.5773 586.891 54.6185 581.256C66.027 576.425 76.5578 569.985 87.0887 563.544L125.702 541.003C129.212 538.587 133.6 536.172 137.988 533.757C137.988 545.028 128.335 560.324 124.824 570.79L121.314 579.646C116.926 590.111 114.293 601.382 114.293 612.653C114.293 621.509 120.437 627.949 125.702 631.17C136.233 637.61 151.152 638.415 158.172 628.754C165.193 618.289 166.948 606.213 166.948 592.527C166.948 586.891 166.07 582.061 166.07 577.23C166.07 563.544 167.825 548.248 173.091 536.977C179.234 524.096 181.867 508.8 174.846 495.919C172.213 491.089 171.336 487.063 171.336 481.428C171.336 474.987 172.213 467.742 173.091 462.106C175.724 447.615 178.356 432.319 182.744 418.633C183.622 415.413 185.377 412.997 185.377 410.582H191.52C191.52 414.608 193.275 420.243 194.153 425.073C194.153 426.684 195.03 428.294 195.03 429.904C196.785 446.81 197.663 454.861 199.418 471.767C199.418 475.792 199.418 479.818 199.418 483.038C200.296 487.063 200.296 491.089 200.296 495.114C200.296 497.529 197.663 499.139 196.785 501.554C192.398 516.046 198.541 532.952 215.214 532.952C231.888 532.952 237.154 530.537 252.072 528.927C272.257 525.706 293.318 530.537 311.747 535.367C317.89 536.977 329.299 539.392 335.442 538.587C338.952 538.587 338.075 538.587 340.707 537.782C350.361 533.757 353.871 516.851 337.197 507.19C334.564 505.58 331.932 504.775 330.176 503.97C326.666 501.554 323.156 491.894 302.094 491.894C293.318 491.894 284.543 492.699 276.645 493.504C267.869 494.309 252.072 497.529 243.297 497.529C238.909 498.334 223.99 500.749 223.99 490.284C223.99 479.013 226.623 469.352 228.378 458.886L237.154 418.633C238.031 415.413 242.419 414.608 245.052 410.582C245.929 408.972 246.807 407.362 247.685 405.752C250.317 404.142 250.317 405.752 252.072 402.532C256.46 396.091 259.093 399.311 259.093 392.066C259.093 384.015 258.215 373.549 260.848 367.914C264.358 363.084 268.746 363.084 273.134 359.863C278.4 354.228 272.257 346.177 272.257 344.567C272.257 342.152 275.767 338.932 276.645 337.322C281.032 331.686 288.931 320.415 288.931 313.17C288.931 307.534 284.543 295.458 282.788 289.018L278.4 272.111C278.4 270.501 277.522 268.086 277.522 265.671C280.155 264.866 282.788 262.451 285.42 260.841C287.175 260.035 287.175 259.23 288.931 259.23C288.931 254.4 281.032 243.934 279.277 239.909L274.012 230.248C273.134 229.443 271.379 228.638 271.379 227.833C270.502 227.028 269.624 223.808 267.869 221.392C266.114 218.977 260.848 213.342 259.971 210.122C264.358 203.681 267.869 202.071 273.134 189.19C274.012 186.775 274.889 183.554 276.645 181.139C278.4 179.529 280.155 178.724 281.032 177.919C283.665 176.309 288.053 173.894 288.931 170.673C289.808 167.453 290.686 151.352 290.686 148.937C290.686 143.301 289.808 138.471 289.808 133.641C289.808 130.42 288.931 128.81 288.931 126.395C285.42 111.904 289.808 120.759 291.563 108.684C292.441 101.438 288.931 99.8279 296.829 99.8279C295.951 88.557 286.298 82.1165 278.4 78.0911C274.012 75.676 274.012 73.2608 272.257 66.0152C269.624 59.5747 265.236 45.0835 256.46 45.0835C251.195 45.0835 245.052 48.3038 239.786 50.719C231.011 53.9392 221.357 59.5747 216.092 49.1089C211.704 41.8633 210.827 35.4228 200.296 39.4481C191.52 43.4734 187.132 44.2785 183.622 33.8127C181.867 28.1772 181.867 21.7367 180.989 15.2962C180.111 11.2709 180.989 1.61013 175.724 0H173.091C170.458 0.805063 166.948 2.41519 162.56 5.63544C158.172 8.8557 151.152 13.6861 147.641 17.7114C136.233 28.9823 129.212 38.643 122.192 53.9392C114.293 69.2354 110.783 86.1418 109.028 103.048C108.15 115.929 106.395 128.81 102.885 141.691C101.13 151.352 97.6196 157.792 92.3542 165.843C88.8439 172.284 81.8233 181.139 81.8233 190.8ZM121.314 346.982C100.252 376.77 75.6803 385.625 45.8428 375.16C64.2718 378.38 91.4766 358.253 80.9457 323.635C92.3542 329.271 107.273 333.296 116.926 326.856C116.926 331.686 115.171 337.322 115.171 342.957L121.314 346.982Z" fill="black"/>
<path fill-rule="evenodd" clip-rule="evenodd" d="M122.192 71.6506C145.008 74.8709 150.274 102.243 131.845 102.243C123.947 103.048 121.314 99.8278 116.049 96.6076C116.049 99.8278 115.171 105.463 115.171 107.878C118.681 115.124 125.702 114.319 134.478 115.929C148.519 117.539 149.396 138.471 130.967 144.106C120.436 147.327 118.681 143.301 110.783 140.081L108.15 149.742C110.783 150.547 109.906 153.767 116.049 155.377C119.559 156.987 123.947 156.987 127.457 157.792C134.478 159.403 141.498 165.843 137.11 173.894C130.09 188.385 98.4971 180.334 96.742 174.699C94.9868 176.309 92.3541 181.944 91.4765 184.359C89.7214 189.995 89.7214 191.605 91.4765 196.435C101.13 196.435 102.885 175.504 116.926 189.995C121.314 194.825 121.314 200.461 117.804 206.096C114.293 210.927 111.661 210.927 103.763 212.537C101.13 218.172 97.6195 220.587 97.6195 228.638C98.4971 228.638 101.13 231.053 102.885 230.248C102.885 230.248 106.395 227.028 107.273 226.223C109.028 224.613 109.906 223.808 110.783 222.197C116.926 214.952 127.457 208.511 136.233 205.291C143.253 202.071 143.253 202.876 147.641 206.901C171.336 227.028 210.826 234.273 238.031 218.172C247.685 213.342 246.807 213.342 252.95 207.706C259.971 201.266 255.583 206.096 260.848 198.851C265.236 194.02 268.746 187.58 268.746 181.139C262.603 181.139 257.338 182.749 253.828 186.775C249.44 189.995 246.807 193.215 241.542 195.63C220.48 206.901 195.03 207.706 176.601 193.215C172.213 189.995 168.703 186.775 166.07 181.139C165.193 177.919 161.682 169.868 160.805 165.843C166.948 167.453 174.846 173.894 189.765 177.919C201.173 181.139 213.459 183.554 225.745 183.554C242.419 183.554 264.358 182.749 277.522 173.894C282.787 169.868 283.665 165.843 283.665 158.597C285.42 145.716 283.665 132.835 281.032 120.759C277.522 108.684 263.481 71.6506 257.338 61.9899C246.807 47.4987 238.909 62.7949 227.5 61.1848C226.623 62.7949 223.112 62.7949 221.357 63.6C221.357 66.0152 235.399 85.3367 235.399 89.362C231.888 86.1418 226.623 79.7013 223.112 74.0658C221.357 70.8456 211.704 58.7696 211.704 57.9645C209.949 57.1595 206.439 53.1342 204.683 52.3291C202.051 50.719 196.785 49.9139 193.275 51.524C188.01 53.9392 176.601 65.2101 172.213 69.2354C166.07 75.6759 163.438 78.8962 158.172 86.9468C157.295 88.557 156.417 89.362 154.662 90.9721C155.539 82.1164 166.948 70.0405 172.213 63.6C176.601 59.5747 183.622 54.7443 186.254 50.719C183.622 46.6937 180.111 45.0835 178.356 40.2532C174.846 33.0076 174.846 23.3468 171.336 16.9063C169.581 14.4911 167.825 15.2962 165.193 16.9063C159.927 18.5164 157.295 21.7367 153.784 24.957L135.355 45.0835C130.967 50.719 123.947 63.6 122.192 71.6506Z" fill="#80BD25"/>
<path fill-rule="evenodd" clip-rule="evenodd" d="M128.335 253.595C128.335 251.985 128.335 250.375 128.335 248.765C129.212 251.18 129.212 256.01 130.967 258.425V255.205C132.722 256.815 133.6 261.646 134.478 264.061C136.233 266.476 137.11 269.696 138.865 272.916C140.621 276.942 141.498 275.332 143.253 280.162C145.008 284.187 144.131 287.408 144.131 291.433C147.641 293.848 152.907 301.094 151.151 308.339C149.396 313.975 145.008 319.61 138.865 320.415C137.988 321.22 135.355 322.025 132.722 323.635C132.722 339.737 130.967 337.322 138.865 341.347C164.315 354.228 216.969 353.423 245.052 346.982C250.317 345.372 253.828 343.762 259.093 342.152C261.726 341.347 260.848 337.322 259.971 332.491L258.215 281.772C257.338 276.137 256.46 265.671 257.338 260.84L258.215 266.476C263.481 266.476 274.012 259.23 278.4 257.62C278.4 252.79 274.889 247.959 273.134 244.739C271.379 241.519 268.746 236.689 266.991 234.273C264.358 230.248 261.726 227.833 259.971 223.808C257.338 219.782 259.093 221.392 256.46 218.977C254.705 217.367 253.828 215.757 252.072 214.147C245.929 215.757 237.154 222.197 234.521 226.223C227.5 235.884 231.888 231.053 224.868 239.104C223.112 240.714 221.357 241.519 220.48 243.129C217.847 247.154 209.949 250.375 203.806 251.985C195.908 252.79 188.01 251.18 181.867 248.765C173.091 243.934 156.417 224.613 149.396 216.562C148.519 215.757 143.253 210.927 142.376 210.122C137.11 207.706 116.049 223.003 110.783 229.443C107.273 234.273 109.906 234.273 109.906 239.104C110.783 242.324 109.906 247.154 109.906 251.18C113.416 251.985 116.049 251.18 119.559 251.985C123.069 252.79 124.824 254.4 127.457 255.205L128.335 253.595Z" fill="#E40013"/>
<path fill-rule="evenodd" clip-rule="evenodd" d="M132.723 368.719C132.723 371.939 137.988 392.871 138.866 397.701C144.131 420.243 148.519 450.835 150.274 474.182C151.152 479.013 152.029 486.258 151.152 491.089C149.396 491.894 148.519 492.699 145.886 494.309C112.538 508.8 49.3531 495.919 37.9447 513.63C37.0671 515.241 37.0671 516.851 37.0671 518.461C37.0671 520.071 37.0671 520.071 37.9447 520.071C44.9653 524.901 73.9252 515.241 81.8233 512.825C88.8439 511.215 96.7421 509.605 103.763 507.995C108.151 507.995 111.661 507.19 116.049 507.19C117.804 507.19 123.947 507.995 125.702 508.8C127.457 509.605 125.702 508.8 127.457 509.605L124.824 510.41C122.192 509.605 93.2318 516.851 87.9663 517.656C75.6803 520.876 64.2719 523.291 51.1083 525.706C37.9447 528.122 27.4138 530.537 18.6381 537.782C10.7399 544.223 8.98475 567.57 13.3726 572.4C33.5568 577.23 68.6597 557.909 83.5785 550.663C95.8645 545.028 136.233 522.486 145.886 520.071L150.274 518.461C151.152 553.884 111.661 601.382 131.845 622.314C137.988 628.754 146.764 623.924 150.274 619.094C158.172 607.823 157.295 590.111 159.05 574.01C159.927 553.079 161.682 549.053 166.948 528.927C175.724 493.504 165.193 501.554 166.07 483.843C166.948 467.742 168.703 452.446 172.213 436.344C173.969 427.489 180.112 400.116 184.499 395.286C184.499 399.311 182.744 403.337 182.744 407.362C194.153 407.362 213.459 395.286 221.357 390.456C228.378 384.82 245.052 365.499 245.052 358.253V356.643C225.745 358.253 178.356 363.889 159.927 362.279C151.152 362.279 141.498 359.863 132.723 359.058C132.723 363.084 132.723 365.499 132.723 368.719Z" fill="#80BD25"/>
<path fill-rule="evenodd" clip-rule="evenodd" d="M445.139 457.276C445.139 472.572 446.016 484.648 454.792 496.724C461.813 505.58 468.833 511.215 478.486 515.241C498.671 524.096 521.488 521.681 539.917 510.41C542.549 507.995 545.182 506.385 547.815 503.97C557.468 493.504 561.856 483.038 563.611 468.547C563.611 464.522 563.611 453.251 562.733 448.42C560.101 431.514 551.325 418.633 536.406 409.777C517.977 400.116 497.793 397.701 478.486 406.557C458.302 416.218 445.139 433.124 445.139 457.276ZM472.343 458.886C472.343 466.937 473.221 473.377 477.609 480.623C481.119 484.648 485.507 487.868 490.772 490.284C501.303 495.114 513.589 493.504 523.243 487.063C524.998 486.258 526.753 485.453 527.631 483.843C532.896 478.208 535.529 472.572 536.406 465.327C536.406 462.911 536.406 457.276 535.529 454.056C534.651 445.2 529.386 437.954 521.488 433.929C511.834 428.294 500.426 427.489 490.772 431.514C479.364 437.149 472.343 446.005 472.343 458.886Z" fill="#C62020"/>
<path fill-rule="evenodd" clip-rule="evenodd" d="M567.121 484.648V517.656C567.121 519.266 567.121 517.656 567.999 519.266C569.754 518.461 574.142 512.825 576.775 510.41L584.673 503.165C584.673 502.36 584.673 502.36 585.55 502.36C585.55 502.36 585.55 502.36 585.55 501.554C589.938 498.334 613.633 472.572 616.265 471.767V519.266C618.898 518.461 619.776 516.851 623.286 513.63L662.777 473.377C664.532 472.572 664.532 470.962 666.287 470.962C666.287 483.038 666.287 507.19 667.165 519.266C670.675 520.071 693.492 520.071 697.002 519.266C697.002 517.656 697.88 517.656 697.88 516.851V404.947C697.88 400.922 690.859 408.972 688.226 411.387C685.594 414.608 682.083 417.023 679.451 420.243L668.042 431.514C667.165 432.319 666.287 433.124 665.41 433.929L649.613 450.03C647.858 451.641 647.858 452.446 647.858 450.03C646.98 443.59 648.736 407.362 646.98 403.337C645.225 404.142 643.47 406.557 641.715 408.167L571.509 478.208C569.754 480.623 567.121 481.428 567.121 484.648Z" fill="#C62020"/>
<path fill-rule="evenodd" clip-rule="evenodd" d="M847.067 313.975C844.434 313.17 830.393 297.873 826.883 293.848C824.25 290.628 809.331 275.332 806.699 274.527C804.943 275.332 800.556 280.162 798.8 282.577L777.739 303.509C775.984 305.119 775.106 305.924 775.106 309.144V386.43C775.106 388.041 775.106 390.456 776.861 390.456H805.821C807.576 390.456 807.576 385.625 807.576 382.405V316.39C809.331 317.195 810.209 319.61 811.964 321.22C813.719 322.83 814.597 323.635 816.352 326.051C819.862 329.271 822.495 331.686 826.005 334.906L876.904 386.43C877.782 386.43 882.17 392.066 882.17 388.041V276.137C882.17 275.332 880.415 273.722 879.537 273.722H849.7C846.189 273.722 847.067 278.552 847.067 281.772V313.975Z" fill="#C62020"/>
<path fill-rule="evenodd" clip-rule="evenodd" d="M358.259 180.334V257.62C358.259 258.425 358.259 259.23 358.259 260.035C362.647 261.646 382.831 260.841 388.974 260.841C390.729 260.841 390.729 258.425 390.729 256.01V176.309C406.525 176.309 415.301 173.894 426.709 184.359C442.506 200.461 431.975 228.638 410.913 231.053C405.648 231.858 395.994 229.443 395.994 233.468V259.23C395.994 260.035 396.872 260.841 397.75 260.841C415.301 260.841 427.587 261.646 442.506 250.375C446.894 247.959 446.894 247.154 449.526 243.934C467.078 223.808 471.466 199.656 458.302 175.504C455.669 171.478 452.159 166.648 448.649 163.428C447.771 161.818 447.771 161.818 446.894 161.013C437.24 153.767 433.73 152.157 422.322 148.132C416.179 145.716 402.137 144.106 395.994 144.911C388.974 145.716 393.362 140.886 381.953 152.157L360.892 173.894C359.136 175.504 358.259 177.114 358.259 180.334Z" fill="#C62020"/>
<path fill-rule="evenodd" clip-rule="evenodd" d="M704.023 437.149V516.851C704.023 517.656 704.9 517.656 704.9 519.266C709.288 520.071 728.595 519.266 734.738 519.266C736.493 519.266 736.493 517.656 736.493 516.046V439.565C736.493 437.149 737.37 436.344 737.37 434.734C741.758 433.124 753.167 433.929 758.432 433.929C773.351 433.929 774.229 449.225 769.841 456.471C765.453 462.911 753.167 460.496 745.269 460.496C744.391 462.106 743.513 462.106 743.513 462.911C743.513 468.547 743.513 485.453 744.391 490.284C748.779 491.089 762.82 490.284 768.963 490.284C790.902 490.284 810.209 470.157 810.209 448.42C810.209 433.124 806.699 422.658 796.168 413.803C781.249 400.922 760.187 403.337 739.126 403.337C735.615 403.337 734.738 404.142 732.983 405.752L711.921 427.489C710.166 429.099 704.023 433.929 704.023 437.149Z" fill="#C62020"/>
<path fill-rule="evenodd" clip-rule="evenodd" d="M557.468 306.729V388.846C557.468 389.651 558.345 390.456 560.1 390.456C566.244 390.456 584.673 391.261 589.06 389.651C590.816 384.82 589.938 334.101 589.938 324.44V308.339C589.938 305.924 589.938 305.119 592.571 305.119H611C631.184 305.119 627.674 326.051 616.265 328.466C613.632 328.466 603.979 328.466 600.469 328.466C597.836 328.466 594.326 328.466 596.959 331.686L653.123 388.04C654.001 388.04 657.511 392.871 657.511 388.846V355.838C657.511 352.618 654.878 351.008 651.368 347.787L646.103 342.152C645.225 341.347 645.225 341.347 644.348 339.737C645.225 338.932 646.103 338.127 646.98 337.321C649.613 335.711 652.246 331.686 654.001 329.271C659.266 319.61 659.266 304.314 654.878 293.848C649.613 280.162 633.817 274.527 620.653 274.527H589.938C587.305 274.527 567.999 294.653 565.366 297.873C563.611 299.484 557.468 305.119 557.468 306.729Z" fill="#C62020"/>
<path fill-rule="evenodd" clip-rule="evenodd" d="M1076.11 437.149V516.851C1076.11 518.461 1076.99 519.266 1077.87 519.266H1105.07C1109.46 519.266 1108.58 515.241 1108.58 512.02V434.734C1112.09 433.124 1127.01 433.929 1131.4 433.929C1147.2 433.929 1147.2 454.056 1135.79 457.276C1130.52 458.886 1119.11 457.276 1115.6 458.081C1112.97 458.886 1117.36 462.911 1119.11 463.716L1170.01 515.241C1170.89 516.851 1173.52 519.266 1175.28 520.071C1175.28 519.266 1176.16 518.461 1176.16 516.851V487.063C1176.16 480.623 1170.01 477.403 1162.99 470.157C1164.75 466.937 1176.16 458.081 1176.16 443.59C1176.16 433.929 1177.03 429.099 1172.65 420.243C1162.12 400.116 1131.4 403.337 1109.46 403.337C1106.83 403.337 1102.44 408.972 1099.81 410.582C1097.18 413.803 1094.54 416.218 1091.91 419.438C1088.4 421.853 1085.77 425.073 1083.13 427.489C1081.38 429.904 1076.11 433.929 1076.11 437.149Z" fill="#C62020"/>
<path fill-rule="evenodd" clip-rule="evenodd" d="M888.313 354.228V388.041C888.313 392.066 892.701 387.235 892.701 386.43L955.009 323.635C963.784 315.585 962.029 309.949 962.029 344.567C962.029 347.787 956.764 346.177 954.131 346.177C950.621 346.177 947.11 346.177 943.6 346.177C938.335 346.177 938.335 348.592 932.192 355.033L912.885 374.354C912.007 375.16 912.885 375.16 915.518 375.965C922.538 375.965 959.396 374.354 961.152 375.965C962.029 377.575 962.029 381.6 962.029 384.015C962.029 388.041 961.152 390.456 964.662 390.456H991.867C992.744 390.456 994.499 388.846 994.499 388.041V276.942C994.499 275.332 993.622 275.332 993.622 274.527C990.989 272.916 990.989 274.527 988.356 274.527L969.05 273.722C964.662 274.527 963.784 276.137 962.029 277.747L892.701 347.787C890.946 349.398 888.313 351.008 888.313 354.228Z" fill="#C62020"/>
<path fill-rule="evenodd" clip-rule="evenodd" d="M661.021 355.033V388.041C661.021 392.066 665.409 387.235 665.409 386.43C674.185 378.38 732.105 318.805 734.738 317.195C734.738 322.025 734.738 343.762 733.86 346.177C731.227 346.982 722.452 346.177 718.941 346.177C711.921 346.177 713.676 346.177 707.533 351.813L688.226 371.134C682.961 376.77 684.716 375.16 702.267 375.16C707.533 375.16 731.227 375.16 733.86 375.965C734.738 378.38 733.86 386.43 734.738 389.651C738.248 390.456 762.82 390.456 766.33 389.651C766.33 388.846 767.208 388.846 767.208 387.235V276.137C767.208 272.916 761.065 274.527 758.432 274.527H747.024C743.513 274.527 740.881 272.916 738.248 274.527C736.493 276.137 674.185 338.932 665.409 348.592C662.777 350.203 661.021 351.008 661.021 355.033Z" fill="#C62020"/>
<path fill-rule="evenodd" clip-rule="evenodd" d="M445.139 355.033V386.43C445.139 388.041 445.139 388.041 445.139 389.651C447.771 388.846 448.649 387.235 450.404 385.625C458.302 377.575 516.222 318.805 517.977 317.195C517.977 322.025 518.855 343.762 517.977 346.177C515.345 346.982 503.058 346.177 499.548 346.177C496.038 346.177 495.16 347.787 493.405 350.203L474.099 369.524C469.711 373.549 465.323 375.965 474.099 375.965L517.977 375.16C518.855 379.99 517.977 385.625 518.855 389.651C522.365 390.456 546.937 390.456 550.447 389.651C550.447 388.846 550.447 388.846 550.447 387.235V276.137C550.447 275.332 550.447 275.332 550.447 274.527C542.549 274.527 534.651 274.527 527.631 273.722C524.12 273.722 521.488 275.332 519.732 276.942L449.527 347.787C447.771 349.398 445.139 351.008 445.139 355.033Z" fill="#C62020"/>
<path fill-rule="evenodd" clip-rule="evenodd" d="M654.878 260.035C656.634 260.035 656.634 259.23 660.144 256.01C661.021 254.4 662.777 253.595 664.532 251.985L690.859 224.613C694.369 222.197 725.084 189.995 727.717 188.385C727.717 194.825 727.717 201.266 727.717 207.706C727.717 218.977 729.472 217.367 717.186 217.367C703.145 217.367 708.41 214.952 692.614 231.053L680.328 243.129C679.45 243.934 677.695 244.739 678.573 245.544C680.328 247.154 724.207 243.934 726.839 246.349C727.717 248.765 725.962 260.841 729.472 260.841H757.554C759.31 260.841 760.187 260.035 760.187 259.23V146.522C760.187 144.911 758.432 144.911 756.677 144.911H734.738C730.35 144.911 725.962 151.352 721.574 155.377L660.144 216.562C658.389 218.172 654.878 221.392 654.878 223.003V260.035Z" fill="#C62020"/>
<path fill-rule="evenodd" clip-rule="evenodd" d="M995.377 437.954V516.851C995.377 517.656 995.377 517.656 995.377 519.266C1000.64 520.071 1055.93 519.266 1065.58 519.266C1067.34 519.266 1069.09 518.461 1069.09 516.046V491.894C1069.09 489.479 1067.34 489.479 1065.58 489.479L1031.36 490.284C1026.09 490.284 1027.85 490.284 1027.85 478.208C1027.85 475.792 1033.11 476.597 1035.75 476.597H1067.34C1068.22 475.792 1069.09 474.987 1069.09 473.377V450.03C1069.09 446.81 1065.58 447.615 1060.32 447.615H1031.36C1026.09 447.615 1027.85 447.615 1027.85 435.539C1027.85 433.929 1029.6 433.929 1032.24 433.929H1064.71C1069.09 433.929 1069.97 432.319 1072.6 429.099L1095.42 406.557C1095.42 405.752 1098.93 403.337 1095.42 403.337H1028.72C1025.21 403.337 1021.7 408.972 1019.07 410.582L998.01 432.319C996.255 433.929 995.377 434.734 995.377 437.954Z" fill="#C62020"/>
<path fill-rule="evenodd" clip-rule="evenodd" d="M360.014 310.754C360.014 318 361.769 323.635 364.402 328.466C367.035 333.296 371.422 337.322 374.933 340.542C389.851 351.813 407.403 343.762 407.403 353.423C407.403 362.279 397.75 360.668 389.851 360.668H365.279C362.647 360.668 358.259 359.863 358.259 362.279V388.846C358.259 389.651 360.014 390.456 360.892 390.456H398.627C410.036 390.456 419.689 388.041 427.587 380.795C447.771 361.473 440.751 330.076 417.056 320.415C407.403 317.195 398.627 318.805 393.362 316.39C390.729 315.585 388.096 311.56 390.729 307.534C392.484 304.314 399.505 305.119 403.893 305.119C412.668 305.119 419.689 305.119 428.465 305.119C431.975 305.119 436.363 305.924 438.996 304.314L467.078 276.137C467.955 275.332 467.955 276.137 467.955 275.332C467.955 272.916 466.2 274.527 464.445 274.527H432.853C423.199 274.527 415.301 273.722 405.648 273.722L392.484 274.527C382.831 275.332 375.81 278.552 369.667 285.798C367.912 287.408 367.912 287.408 367.035 289.823C362.647 295.458 360.014 302.704 360.014 310.754Z" fill="#C62020"/>
<path fill-rule="evenodd" clip-rule="evenodd" d="M519.732 231.053C513.589 231.053 509.201 227.833 506.569 223.808C503.936 219.782 504.813 210.927 504.813 204.486V152.962C504.813 141.691 505.691 143.301 492.527 156.987L476.731 172.284C474.976 174.699 472.343 175.504 472.343 178.724V218.977C472.343 226.223 474.098 231.858 476.731 236.689C483.752 250.375 499.548 262.451 517.099 262.451C535.529 262.451 550.447 254.4 560.101 239.909C563.611 232.663 565.366 225.418 565.366 214.147C565.366 203.681 566.244 194.02 566.244 182.749C566.244 174.699 566.244 155.377 566.244 148.132C565.366 146.522 566.244 144.911 563.611 144.911H537.284C534.651 144.911 533.773 144.911 533.773 147.327C532.896 149.742 533.773 211.732 533.773 218.977C533.773 225.418 526.753 231.053 519.732 231.053Z" fill="#C62020"/>
<path fill-rule="evenodd" clip-rule="evenodd" d="M873.394 444.395C873.394 454.861 872.517 463.716 872.517 474.182C873.394 479.818 872.517 482.233 869.884 485.453C861.986 492.699 850.577 490.284 845.312 482.233C843.557 477.403 844.434 469.352 844.434 462.911V410.582C844.434 401.727 844.434 402.532 837.414 408.972L824.25 422.658C824.25 422.658 824.25 422.658 824.25 423.463L816.352 431.514C814.597 433.124 811.964 434.734 811.964 437.954V476.598C811.964 486.258 815.474 496.724 822.495 503.97C823.373 505.58 823.373 506.385 825.128 507.19C832.148 514.435 845.312 520.876 855.843 520.876C868.129 520.876 875.149 520.071 884.803 512.825C894.456 506.385 901.477 496.724 904.109 485.453C905.864 478.208 904.987 414.608 904.987 405.752C904.987 404.947 904.987 404.947 904.987 403.337C900.599 402.532 881.292 403.337 876.027 403.337C871.639 403.337 872.517 405.752 872.517 411.387C872.517 414.608 872.517 418.633 872.517 422.658C872.517 425.879 873.394 429.099 873.394 433.124C873.394 437.149 873.394 440.37 873.394 444.395Z" fill="#C62020"/>
<path fill-rule="evenodd" clip-rule="evenodd" d="M357.381 462.911C357.381 474.182 361.769 485.453 367.912 494.309C372.3 502.36 381.076 511.215 389.852 514.435C403.015 520.071 410.036 520.071 424.077 519.266C426.71 519.266 427.587 519.266 427.587 516.851C427.587 486.258 429.342 489.479 421.444 490.284C413.546 490.284 407.403 490.284 400.382 484.648C385.464 474.182 384.586 451.641 401.26 439.565C409.158 433.929 415.301 434.734 428.465 434.734C436.363 434.734 435.485 433.124 439.873 429.099L453.914 414.608C456.547 410.582 463.568 405.752 463.568 403.337C460.935 402.532 421.444 403.337 413.546 403.337C403.893 404.142 386.341 410.582 378.443 417.828C372.3 423.463 367.912 428.294 364.402 436.344C360.892 442.785 357.381 453.251 357.381 462.911Z" fill="#C62020"/>
<path fill-rule="evenodd" clip-rule="evenodd" d="M129.212 365.499C127.457 367.109 132.723 376.77 124.824 379.99C120.437 382.405 113.416 379.99 107.273 379.99C112.538 382.405 115.171 380.795 116.926 386.43C114.294 388.041 112.538 388.846 108.151 388.041C105.518 387.235 102.885 385.625 100.252 388.041C97.6197 389.651 94.987 397.701 87.0888 392.871C85.3337 391.261 82.701 388.041 80.0683 390.456C77.4355 391.261 76.558 394.481 73.0477 394.481C68.6598 394.481 66.9047 387.235 59.0065 388.846C58.1289 391.261 58.1289 392.871 56.3738 395.286C50.2308 394.481 50.2308 390.456 48.4756 388.041L47.5981 387.235C45.8429 388.846 47.5981 388.846 45.8429 389.651C44.9653 389.651 43.2102 389.651 42.3326 389.651C39.6999 389.651 36.1896 379.185 33.5569 374.354L31.8017 372.744C3.7194 356.643 15.1278 309.144 44.9653 305.924C68.6598 304.314 80.0683 329.271 72.1701 349.397C69.5374 356.643 60.7616 364.694 52.8635 367.109C31.8017 373.549 15.1278 347.787 27.4139 327.661C39.6999 305.924 67.7822 313.17 67.7822 336.516C67.7822 346.982 60.7616 355.838 52.8635 359.058C41.455 363.084 31.8017 355.033 30.9242 345.372C29.169 333.296 36.1896 324.441 46.7205 323.635C59.0065 322.83 63.3944 335.711 57.2514 345.372C50.2308 355.033 35.312 351.813 37.9447 338.932C38.8223 334.101 43.2102 329.271 48.4756 332.491C55.4962 334.906 51.9859 343.762 47.5981 342.152C49.3532 340.542 51.1083 341.347 51.1083 338.932C50.2308 336.516 49.3532 334.906 47.5981 334.101C42.3326 332.491 39.6999 336.516 39.6999 341.347C39.6999 351.008 51.9859 350.203 55.4962 342.957C59.0065 336.516 57.2514 324.441 44.9653 326.051C28.2914 328.466 29.169 361.473 50.2308 356.643C67.7822 352.618 68.6598 326.856 56.3738 319.61C42.3326 311.559 24.7812 325.246 25.6587 344.567C28.2914 374.354 66.9047 371.134 72.1701 341.347C74.8028 323.635 62.5168 306.729 44.9653 309.144C22.1484 311.559 8.98483 344.567 26.5363 364.694C30.0466 369.524 39.6999 373.549 48.4756 373.549C72.1701 372.744 87.9664 344.567 75.6804 319.61C72.1701 313.17 67.7822 307.534 60.7616 304.314C43.2102 297.068 24.7812 306.729 17.7606 316.39C6.35212 329.271 5.47454 344.567 12.4951 362.278C19.5157 378.38 28.2914 385.625 40.5775 394.481C50.2308 401.727 70.415 408.167 84.4561 411.387C100.252 414.608 122.192 417.023 138.866 415.413C138.866 408.167 135.355 397.701 134.478 390.456C132.723 382.405 130.968 373.549 129.212 365.499Z" fill="#80B627"/>
<path fill-rule="evenodd" clip-rule="evenodd" d="M575.897 174.699C576.775 175.504 576.775 175.504 578.53 175.504C580.285 175.504 579.407 175.504 581.162 175.504C584.673 176.309 602.224 175.504 603.102 176.309C604.857 176.309 603.979 177.919 603.979 181.944V255.205C603.979 257.62 603.102 260.841 605.734 260.841H634.694C637.327 260.841 636.45 256.815 636.45 251.985V182.749C636.45 178.724 635.572 176.309 639.082 176.309C649.613 174.699 644.348 177.114 657.511 165.038L671.552 149.742C672.43 149.742 677.695 144.911 674.185 144.911H608.367C603.979 144.911 602.224 147.327 599.591 149.742L596.959 152.962L579.407 170.673C577.652 171.478 575.897 173.089 575.897 174.699Z" fill="#C62020"/>
<path fill-rule="evenodd" clip-rule="evenodd" d="M915.518 433.929C922.539 433.929 937.457 433.124 942.723 434.734V497.529C942.723 503.97 942.723 513.63 943.6 519.266C947.111 520.071 971.683 520.071 975.193 519.266V435.539C976.07 431.514 983.091 436.344 987.479 433.124L1006.79 412.997C1009.42 410.582 1018.19 403.337 1013.81 403.337H947.111C943.6 403.337 941.845 406.557 938.335 409.777L918.151 429.904C914.64 433.124 915.518 432.319 915.518 433.929Z" fill="#C62020"/>
<path fill-rule="evenodd" clip-rule="evenodd" d="M197.663 412.997C197.663 415.413 201.173 438.759 202.051 442.785C202.928 453.251 203.806 463.716 204.683 474.182C206.439 491.089 206.439 489.478 202.928 504.775C200.296 516.046 205.561 523.291 216.092 525.706C232.766 528.122 239.786 516.851 278.4 522.486C290.686 524.096 325.789 533.757 336.319 531.342C338.952 530.537 340.707 530.537 340.707 527.316C340.707 524.096 340.707 521.681 339.83 519.266C331.932 502.359 284.543 503.97 268.746 504.775C257.338 504.775 231.888 506.385 223.112 499.139C218.725 495.919 218.725 492.699 219.602 486.258C220.48 466.132 225.745 446.81 229.255 426.684C230.133 422.658 231.888 416.218 231.011 411.387C229.255 404.142 232.766 401.727 231.888 396.896C233.643 388.846 228.378 393.676 225.745 396.091C216.969 402.532 213.459 408.167 197.663 410.582V412.997Z" fill="#80BD25"/>
<path fill-rule="evenodd" clip-rule="evenodd" d="M116.049 292.238C121.314 283.382 136.233 288.213 140.621 287.408C144.131 282.577 138.866 276.942 136.233 275.332C130.967 272.111 127.457 271.306 120.436 270.501C123.947 268.086 129.212 269.696 133.6 269.696C133.6 260.036 122.192 256.815 111.661 256.815C85.3335 257.62 72.17 292.238 86.2111 314.78C87.0887 316.39 87.9663 318.805 89.7214 320.415C91.4766 322.83 100.252 329.271 108.15 326.051C109.028 325.246 112.538 323.636 113.416 322.83C118.681 318 119.559 319.61 127.457 318.805C135.355 318.805 148.519 318 148.519 305.119C148.519 293.848 138.866 290.628 130.09 289.018C123.069 288.213 121.314 289.823 116.049 292.238Z" fill="#FCFCFE"/>
<path fill-rule="evenodd" clip-rule="evenodd" d="M167.825 98.2177C165.193 107.073 163.438 115.929 167.825 124.785C179.234 147.327 218.725 142.496 223.113 114.319C224.868 97.4127 215.214 90.1671 213.459 86.1418C202.928 85.3367 197.663 84.5316 187.132 86.9468C179.234 89.362 171.336 93.3873 167.825 98.2177Z" fill="#FCFCFE"/>
<path fill-rule="evenodd" clip-rule="evenodd" d="M59.0063 389.651C59.0063 392.066 59.0063 393.676 56.3736 395.286V396.091C50.2306 395.286 50.2306 392.066 47.5978 388.846C47.5978 388.846 47.5978 389.651 45.8427 390.456C44.9651 390.456 43.21 391.261 41.4548 390.456C39.6997 389.651 34.4343 377.575 32.6791 375.159L30.0464 371.939C65.1493 389.651 97.6195 384.82 121.314 351.813C122.192 350.203 123.069 347.787 125.702 346.982C125.702 346.177 126.579 346.982 126.579 346.982C128.335 354.228 128.335 362.278 130.09 369.524C130.09 372.744 130.967 378.38 125.702 380.795C122.192 382.405 118.681 381.6 115.171 381.6C116.049 382.405 116.926 383.21 117.804 386.43L116.926 387.235C113.416 388.846 112.538 389.651 108.15 388.846C105.518 388.04 102.885 386.43 100.252 388.846C95.8644 391.261 94.9868 398.506 86.2111 393.676C84.4559 392.066 82.7008 389.651 80.0681 391.261C77.4353 392.871 77.4353 396.091 73.0475 395.286C68.6596 395.286 66.9045 388.846 59.0063 389.651Z" fill="#62A531"/>
<path fill-rule="evenodd" clip-rule="evenodd" d="M216.97 289.823V289.018C216.97 289.823 216.97 289.018 216.092 289.018C215.214 287.408 215.214 285.797 210.827 284.992C205.561 284.187 202.928 284.992 202.928 282.577C205.561 280.967 213.459 281.772 216.97 281.772L220.48 270.501C215.214 271.306 209.949 271.306 204.684 271.306C199.418 271.306 195.908 272.916 194.153 276.942C192.398 280.162 192.398 286.603 195.03 289.823C197.663 294.653 204.684 291.433 207.316 293.043C206.439 295.458 205.561 294.653 200.296 294.653C197.663 294.653 195.03 294.653 192.398 294.653L187.132 304.314C192.398 304.314 202.928 304.314 208.194 303.509C213.459 302.704 216.97 298.678 216.97 292.238C218.725 293.848 218.725 296.263 219.602 297.873C221.357 299.484 223.113 301.094 224.868 301.899C226.623 303.509 228.378 303.509 231.888 303.509L237.154 302.704C239.786 301.899 238.909 301.094 238.909 293.848C234.521 293.848 229.256 294.653 227.5 290.628C226.623 286.603 229.256 281.772 231.888 280.162C237.154 278.552 237.154 282.577 241.542 276.137C243.297 273.722 246.807 270.501 246.807 267.281C243.297 267.281 238.909 268.086 235.399 268.891C230.133 268.891 228.378 268.891 224.868 271.306C220.48 274.527 216.97 280.967 216.97 289.823Z" fill="#AB1D24"/>
<path fill-rule="evenodd" clip-rule="evenodd" d="M259.093 346.177C261.726 350.203 265.236 343.762 266.991 342.152C268.746 338.932 270.501 336.516 273.134 333.296C276.644 328.466 282.787 318.805 282.787 312.365C281.91 303.509 272.257 271.306 268.746 266.476C266.114 266.476 260.848 268.891 259.971 270.501C258.215 272.111 259.093 280.967 259.093 283.382C259.971 292.238 262.603 297.068 266.114 304.314C272.257 318 267.869 313.17 263.481 323.635C260.848 330.881 264.358 339.737 262.603 342.957C261.726 345.372 259.971 344.567 259.093 346.177Z" fill="#80BD25"/>
<path fill-rule="evenodd" clip-rule="evenodd" d="M240.664 190.8C231.888 186.775 211.704 185.165 201.173 183.554C188.887 181.139 168.703 172.284 166.07 172.284C168.703 203.681 234.521 207.706 240.664 190.8Z" fill="#D81218"/>
<path fill-rule="evenodd" clip-rule="evenodd" d="M159.927 300.289C159.927 306.729 159.927 305.119 173.968 305.119C194.153 305.924 197.663 284.992 186.254 275.332C182.744 272.916 176.601 270.501 170.458 271.306C169.581 271.306 160.805 279.357 160.805 280.967C159.927 281.772 159.927 297.873 159.927 300.289Z" fill="#AB1D24"/>
<path fill-rule="evenodd" clip-rule="evenodd" d="M96.7419 174.699C98.4971 180.334 130.09 188.385 137.11 173.894C141.498 165.843 134.478 159.403 127.457 157.792C123.947 156.987 119.559 156.987 116.049 155.377C109.906 153.767 110.783 150.547 108.15 149.742C106.395 154.572 105.518 158.597 102.885 162.623C101.13 166.648 97.6195 171.479 96.7419 174.699Z" fill="#F0E800"/>
<path fill-rule="evenodd" clip-rule="evenodd" d="M110.783 140.081C118.681 143.301 120.437 147.327 130.967 144.106C149.396 138.471 148.519 117.539 134.478 115.929C125.702 114.319 118.681 115.124 115.171 107.878C114.293 110.294 114.293 120.759 113.416 124.785C112.538 129.615 111.661 135.251 110.783 140.081Z" fill="#DA0075"/>
<path fill-rule="evenodd" clip-rule="evenodd" d="M259.093 342.152C253.828 343.762 250.317 345.372 245.052 346.982C216.97 353.423 164.315 354.228 138.866 341.347C130.967 337.322 132.723 339.737 132.723 323.635C135.355 322.025 137.988 321.22 138.866 320.415C135.355 321.22 124.824 321.22 123.069 322.025C120.437 325.246 118.681 336.516 118.681 341.347C130.967 350.203 173.091 354.228 188.887 354.228C206.439 355.033 228.378 354.228 245.052 349.397C249.44 347.787 257.338 345.372 259.093 342.152Z" fill="#A51F25"/>
<path fill-rule="evenodd" clip-rule="evenodd" d="M13.3726 572.4C15.1277 578.035 23.0259 579.645 30.0465 578.84C53.7409 575.62 94.1093 551.468 115.171 539.392L138.866 525.706C139.743 524.901 141.498 524.096 142.376 523.291C144.131 522.486 145.009 521.681 145.886 520.071C136.233 522.486 95.8644 545.028 83.5784 550.663C68.6597 557.909 33.5567 577.23 13.3726 572.4Z" fill="#62A531"/>
<path fill-rule="evenodd" clip-rule="evenodd" d="M132.723 368.719C132.723 365.499 132.723 363.084 132.723 359.058C141.498 359.863 151.152 362.278 159.927 362.278C178.356 363.889 225.745 358.253 245.052 356.643V358.253C245.929 356.643 245.929 353.423 245.929 351.813C236.276 352.618 226.623 355.033 217.847 355.838C207.316 356.643 196.785 356.643 186.255 356.643C171.336 355.838 157.295 355.033 143.253 351.813C139.743 351.008 132.723 348.592 130.09 348.592C130.09 350.203 131.845 366.304 132.723 368.719Z" fill="#62A531"/>
<path fill-rule="evenodd" clip-rule="evenodd" d="M161.683 303.509C163.438 304.314 168.703 304.314 170.458 303.509V280.967C177.479 280.162 183.622 282.577 182.744 289.018C182.744 291.433 180.989 293.848 179.234 294.653C176.601 296.263 174.846 295.458 172.213 296.263L171.336 303.509C193.275 308.339 199.418 276.942 178.356 272.916C175.724 272.111 171.336 271.306 169.581 272.916C167.826 274.527 166.07 276.137 164.315 277.747C161.683 280.162 161.683 279.357 161.683 284.187C161.683 288.213 160.805 301.094 161.683 303.509Z" fill="#FFFEFE"/>
<path fill-rule="evenodd" clip-rule="evenodd" d="M116.049 96.6076C121.314 99.8278 123.947 103.048 131.845 102.243C150.274 102.243 145.008 74.8709 122.192 71.6506C119.559 80.5063 118.681 86.9468 116.049 96.6076Z" fill="#008DCF"/>
<path fill-rule="evenodd" clip-rule="evenodd" d="M245.929 396.896V403.337C250.317 402.532 249.44 396.896 251.195 392.871H252.072C252.95 392.871 252.072 392.871 253.828 393.676C258.215 389.651 254.705 378.38 257.338 370.329C257.338 367.109 259.971 365.499 259.971 363.889C259.971 359.863 256.46 361.473 255.583 363.084C253.828 365.499 252.95 367.109 252.072 368.719C248.562 373.549 238.031 386.43 237.154 390.456C235.399 394.481 234.521 400.116 233.643 405.752C232.766 417.023 238.909 414.608 243.297 403.337C244.174 400.922 245.052 398.506 245.929 396.896Z" fill="#FFFEFE"/>
<path fill-rule="evenodd" clip-rule="evenodd" d="M208.194 292.238L207.316 295.458C204.684 296.263 196.785 295.458 193.275 295.458L188.887 302.704C197.663 303.509 210.827 305.119 215.214 297.873C216.97 293.848 216.092 288.213 212.582 286.603C209.071 284.187 201.173 287.408 202.051 281.772C204.684 279.357 211.704 280.162 216.092 280.162L218.725 272.111C213.459 272.111 209.071 272.111 204.684 272.111C190.642 272.916 193.275 286.603 195.908 289.823C199.418 293.043 203.806 290.628 208.194 292.238Z" fill="#FFFEFE"/>
<path fill-rule="evenodd" clip-rule="evenodd" d="M163.438 100.633C164.315 100.633 164.315 99.8278 163.438 103.853C162.56 107.878 162.56 112.709 162.56 116.734C163.438 121.565 165.193 126.395 166.948 129.615C180.112 150.547 216.97 148.937 223.99 126.395C224.868 122.37 225.745 115.124 223.99 111.099L223.113 114.319C218.725 142.496 179.234 147.327 167.825 124.785C163.438 115.929 165.193 107.073 167.825 98.2177C166.948 98.2177 166.07 99.0228 165.193 99.0228L164.315 99.8278C163.438 100.633 163.438 99.8278 163.438 100.633Z" fill="#62A531"/>
<path fill-rule="evenodd" clip-rule="evenodd" d="M128.335 253.595L127.457 255.205C124.824 254.4 123.069 252.79 119.559 251.985C116.049 251.18 113.416 251.985 109.906 251.18C109.906 247.154 110.783 242.324 109.906 239.104C109.906 234.273 107.273 234.273 110.783 229.443C116.049 223.003 137.11 207.706 142.376 210.122C143.253 210.927 148.519 215.757 149.397 216.562C156.417 224.613 173.091 243.934 181.867 248.765C188.01 251.18 195.908 252.79 203.806 251.985C209.949 250.375 217.847 247.154 220.48 243.129C216.092 244.739 211.704 249.57 200.296 249.57C183.622 250.375 175.724 239.909 166.07 230.248C159.05 223.003 152.907 214.952 146.764 208.511C143.253 206.096 142.376 205.291 137.11 207.706C118.681 217.367 119.559 217.367 106.395 231.053C102.008 235.078 104.64 235.078 106.395 240.714C107.273 244.739 107.273 251.18 109.906 251.985C113.416 253.595 117.804 251.985 128.335 256.815V253.595Z" fill="#CB151D"/>
<path fill-rule="evenodd" clip-rule="evenodd" d="M92.3541 260.841C94.1092 260.035 96.742 258.425 98.4971 256.815C101.13 255.205 103.763 255.205 105.518 253.595C106.395 247.96 104.64 241.519 102.007 236.689C99.3747 231.858 95.8644 228.638 87.9662 231.053C86.2111 231.053 86.2111 231.858 85.3335 233.468C84.4559 234.273 84.4559 235.884 83.5784 237.494C83.5784 240.714 85.3335 243.129 87.0887 245.544C87.9662 246.349 87.9662 247.154 88.8438 248.765C90.599 252.79 91.4765 250.375 92.3541 260.841Z" fill="#F9F9F9"/>
<path fill-rule="evenodd" clip-rule="evenodd" d="M237.154 301.899L238.031 294.653C235.399 294.653 224.868 296.263 226.623 286.603C227.5 279.357 231.888 279.357 238.909 278.552C239.786 277.747 245.052 269.696 245.929 268.891C233.643 268.891 222.235 268.891 218.725 282.577C216.97 288.213 218.725 294.653 222.235 297.873C225.745 302.704 230.133 302.704 237.154 301.899Z" fill="#FFFEFE"/>
<path fill-rule="evenodd" clip-rule="evenodd" d="M251.195 501.554C255.583 503.164 293.318 503.164 303.849 503.164C309.992 503.164 315.258 504.775 320.523 504.775C317.013 487.063 254.705 499.944 251.195 501.554Z" fill="#62A531"/>
<path fill-rule="evenodd" clip-rule="evenodd" d="M231.888 224.613C226.623 225.418 226.623 227.833 223.99 230.248C216.97 238.299 204.684 242.324 193.275 240.714C174.846 237.494 172.213 220.587 160.805 218.977L166.948 227.833C181.867 243.129 195.03 254.4 217.847 240.714C222.235 238.299 230.133 231.053 231.888 224.613Z" fill="#CA151D"/>
<path fill-rule="evenodd" clip-rule="evenodd" d="M221.357 227.833C212.582 227.833 206.439 230.248 196.785 229.443C188.887 229.443 182.744 226.223 174.846 225.418C176.601 233.468 197.663 244.739 216.969 232.663C219.602 231.053 220.48 231.053 221.357 227.833Z" fill="#619633"/>
<path fill-rule="evenodd" clip-rule="evenodd" d="M37.9446 520.071C40.5773 527.316 48.4755 524.096 58.1288 522.486C66.0269 520.876 73.0475 519.266 80.0681 517.656C91.4765 515.24 107.273 512.02 119.559 510.41C120.436 509.605 121.314 509.605 122.192 509.605C123.069 509.605 123.947 509.605 124.824 510.41L127.457 509.605C125.702 508.8 127.457 509.605 125.702 508.8C123.947 507.995 117.804 507.19 116.049 507.19C111.661 507.19 108.15 507.995 103.763 507.995C96.742 509.605 88.8438 511.215 81.8232 512.825C73.9251 515.24 44.9652 524.901 37.9446 520.071Z" fill="#62A531"/>
<path fill-rule="evenodd" clip-rule="evenodd" d="M188.887 99.8278C174.846 101.438 178.356 118.344 190.642 117.539C202.928 116.734 199.418 97.4127 188.887 99.8278Z" fill="#0B0202"/>
<path fill-rule="evenodd" clip-rule="evenodd" d="M166.07 94.9974C169.581 93.3873 172.213 91.7772 175.724 89.362C179.234 87.7519 182.744 86.1417 187.132 85.3367C195.908 82.9215 204.684 83.7266 214.337 85.3367C210.827 81.3114 193.275 76.481 185.377 78.0911C174.846 78.8962 170.458 86.9468 166.07 94.9974Z" fill="#62A531"/>
<path fill-rule="evenodd" clip-rule="evenodd" d="M197.663 412.997V410.582C213.459 408.167 216.97 402.532 225.745 396.091C228.378 393.676 233.643 388.846 231.888 396.896C232.766 396.896 232.766 396.896 232.766 396.896L234.521 388.846C225.745 388.041 227.5 390.456 216.092 397.701C209.071 402.532 198.541 406.557 196.785 407.362L197.663 411.387C197.663 414.608 196.785 409.777 197.663 412.192C197.663 412.192 197.663 412.192 197.663 412.997Z" fill="#62A531"/>
<path fill-rule="evenodd" clip-rule="evenodd" d="M268.746 348.592C264.358 348.592 264.358 350.203 260.848 349.397C257.338 349.397 257.338 347.787 254.705 347.787C243.297 350.203 255.583 363.084 267.869 358.253C274.889 355.838 271.379 351.813 268.746 348.592Z" fill="#FFFEFE"/>
<path fill-rule="evenodd" clip-rule="evenodd" d="M231.888 385.625C239.786 384.015 252.072 366.304 254.705 359.863C252.95 357.448 251.195 356.643 247.685 356.643C248.562 365.499 233.643 379.185 231.888 385.625Z" fill="#FFFEFE"/>
<path fill-rule="evenodd" clip-rule="evenodd" d="M275.767 97.4127C275.767 99.0228 281.032 111.904 281.91 114.319C288.93 111.099 288.93 105.463 288.93 97.4127C283.665 95.8025 279.277 93.3873 275.767 97.4127Z" fill="#FFFEFE"/>
<path fill-rule="evenodd" clip-rule="evenodd" d="M84.4559 320.415C83.5783 314.78 75.6802 307.534 77.4353 291.433C77.4353 289.018 79.1905 283.382 78.3129 281.772C75.6802 280.967 75.6802 282.577 74.8026 284.187C70.4147 293.043 72.1699 304.314 77.4353 312.365C78.3129 313.975 79.1905 314.78 80.068 316.39C81.8232 318.805 80.9456 319.61 84.4559 320.415Z" fill="#FCFCFE"/>
<path fill-rule="evenodd" clip-rule="evenodd" d="M275.767 97.4127C279.277 93.3873 283.665 95.8025 288.931 97.4127C287.175 92.5823 285.42 90.1671 282.788 87.7519C280.155 86.1418 275.767 83.7266 271.379 84.5316C271.379 88.557 274.012 94.9975 275.767 97.4127Z" fill="#619633"/>
<path fill-rule="evenodd" clip-rule="evenodd" d="M227.5 61.1848L216.092 62.7949C214.337 59.5747 215.214 59.5747 211.704 57.9646C211.704 58.7696 221.357 70.8456 223.113 74.0658C226.623 79.7013 231.888 86.1418 235.399 89.362C235.399 85.3367 221.357 66.0152 221.357 63.6C223.113 62.7949 226.623 62.7949 227.5 61.1848Z" fill="#2B3F20"/>
<path fill-rule="evenodd" clip-rule="evenodd" d="M171.336 294.653C177.479 295.458 181.867 293.848 181.867 288.213C181.867 283.382 177.479 280.967 172.213 281.772L171.336 294.653Z" fill="#E40013"/>
<path fill-rule="evenodd" clip-rule="evenodd" d="M166.07 94.9975C166.07 96.6076 163.438 98.2177 162.56 99.0228C161.682 99.8278 159.05 103.048 158.172 103.853C159.927 102.243 161.682 101.438 163.438 100.633C163.438 99.8278 163.438 100.633 164.315 99.8278L165.193 99.0228C166.07 99.0228 166.948 98.2177 167.825 98.2177C171.336 93.3873 179.234 89.362 187.132 86.9468C197.663 84.5316 202.928 85.3367 213.459 86.1418L218.725 86.9468L214.337 85.3367C204.683 83.7266 195.908 82.9215 187.132 85.3367C182.744 86.1418 179.234 87.7519 175.724 89.362C172.213 91.7772 169.581 93.3873 166.07 94.9975Z" fill="#355125"/>
<path fill-rule="evenodd" clip-rule="evenodd" d="M237.154 150.547C237.154 154.572 237.154 156.182 240.664 156.987C244.174 158.597 247.685 156.987 248.562 154.572C251.195 147.327 238.909 144.911 237.154 150.547Z" fill="#0E1908"/>
<path fill-rule="evenodd" clip-rule="evenodd" d="M79.1907 272.916L82.701 273.722L87.9664 265.671C89.7216 262.451 91.4767 257.62 88.844 255.205C87.0888 256.01 86.2113 256.815 85.3337 258.425C84.4561 259.23 83.5785 261.646 83.5785 263.256C81.8234 266.476 79.1907 268.086 79.1907 272.916Z" fill="#C9161E"/>
<path fill-rule="evenodd" clip-rule="evenodd" d="M275.767 144.106C268.747 145.716 270.502 153.767 276.645 151.352C282.788 149.742 281.91 142.496 275.767 144.106Z" fill="#121A09"/>
</g>
<defs>
<clipPath id="clip0_126_48">
<rect width="1222" height="636" fill="white"/>
</clipPath>
</defs>
</svg>
